<svg xmlns="http://www.w3.org/2000/svg" width="960" height="320" viewBox="0 0 960 320" role="img" aria-labelledby="title description">
<title id="title">KeyHog star history</title>
<desc id="description">KeyHog GitHub stars: 44 on 2026-05-27 to 0 on 2026-09-04</desc>
<defs>
  <linearGradient id="area" x1="0" y1="0" x2="0" y2="1"><stop offset="0" stop-color="#ffd60a" stop-opacity="0.34"/><stop offset="1" stop-color="#ffd60a" stop-opacity="0.03"/></linearGradient>
  <style>.bg{fill:#0d1017}.grid{stroke:#343844;stroke-width:1}.axis{fill:#aeb4c2;font:12px ui-monospace,SFMono-Regular,Consolas,monospace}.label{fill:#f5f7fa;font:600 15px system-ui,sans-serif}.value{fill:#ffd60a;font:700 27px system-ui,sans-serif}.line{fill:none;stroke:#ffd60a;stroke-width:3;stroke-linecap:round;stroke-linejoin:round}</style>
</defs>
<rect class="bg" width="960" height="320" rx="12"/>
<text x="68" y="34" class="label">Repository star history</text>
<text x="68" y="65" class="value">0 stars</text>
<text x="248" y="62" class="axis">-44 since 2026-05-27 · repository-owned history</text>
<line x1="68" y1="266.00" x2="932" y2="266.00" class="grid"/><text x="56" y="270.00" text-anchor="end" class="axis">0</text><line x1="68" y1="220.00" x2="932" y2="220.00" class="grid"/><text x="56" y="224.00" text-anchor="end" class="axis">25</text><line x1="68" y1="174.00" x2="932" y2="174.00" class="grid"/><text x="56" y="178.00" text-anchor="end" class="axis">50</text><line x1="68" y1="128.00" x2="932" y2="128.00" class="grid"/><text x="56" y="132.00" text-anchor="end" class="axis">75</text><line x1="68" y1="82.00" x2="932" y2="82.00" class="grid"/><text x="56" y="86.00" text-anchor="end" class="axis">100</text>
<path d="M 68,266 L 68.00,185.04 L 76.64,168.48 L 85.28,162.96 L 93.92,150.08 L 102.56,144.56 L 111.20,139.04 L 119.84,135.36 L 128.48,131.68 L 163.04,129.84 L 171.68,126.16 L 180.32,124.32 L 206.24,120.64 L 275.36,118.80 L 309.92,116.96 L 379.04,113.28 L 404.96,111.44 L 422.24,113.28 L 430.88,115.12 L 482.72,113.28 L 534.56,111.44 L 551.84,109.60 L 603.68,105.92 L 690.08,104.08 L 733.28,102.24 L 759.20,104.08 L 767.84,102.24 L 776.48,100.40 L 819.68,98.56 L 828.32,96.72 L 836.96,94.88 L 845.60,93.04 L 854.24,87.52 L 862.88,85.68 L 871.52,83.84 L 888.80,82.00 L 914.72,83.84 L 932.00,266.00 L 932,266 Z" fill="url(#area)"/>
<polyline points="68.00,185.04 76.64,168.48 85.28,162.96 93.92,150.08 102.56,144.56 111.20,139.04 119.84,135.36 128.48,131.68 163.04,129.84 171.68,126.16 180.32,124.32 206.24,120.64 275.36,118.80 309.92,116.96 379.04,113.28 404.96,111.44 422.24,113.28 430.88,115.12 482.72,113.28 534.56,111.44 551.84,109.60 603.68,105.92 690.08,104.08 733.28,102.24 759.20,104.08 767.84,102.24 776.48,100.40 819.68,98.56 828.32,96.72 836.96,94.88 845.60,93.04 854.24,87.52 862.88,85.68 871.52,83.84 888.80,82.00 914.72,83.84 932.00,266.00" class="line"/>
<circle cx="932.00" cy="266.00" r="5" fill="#ffd60a"/>
<text x="68.00" y="297" text-anchor="start" class="axis">2026-05-27</text><text x="482.72" y="297" text-anchor="middle" class="axis">2026-07-14</text><text x="932.00" y="297" text-anchor="end" class="axis">2026-09-04</text>
</svg>
